<mxfile host="app.diagrams.net" modified="2020-09-26T20:30:50.810Z" agent="5.0 (Windows NT 10.0; Win64; x64) AppleWebKit/537.36 (KHTML, like Gecko) Chrome/85.0.4183.102 Safari/537.36 OPR/71.0.3770.175" etag="teuZTE0WaU23cKig4Ycr" version="13.7.5" type="github">
  <diagram id="Cc_ZElurw8-IYbpflgzz" name="Page-1">
    <mxGraphModel dx="1381" dy="764" grid="1" gridSize="10" guides="1" tooltips="1" connect="1" arrows="1" fold="1" page="1" pageScale="1" pageWidth="827" pageHeight="1169" math="0" shadow="0">
      <root>
        <mxCell id="0" />
        <mxCell id="1" parent="0" />
        <mxCell id="w4hCBARyAzVgKkLP8NsO-3" value="" style="edgeStyle=orthogonalEdgeStyle;rounded=0;orthogonalLoop=1;jettySize=auto;html=1;" edge="1" parent="1" source="w4hCBARyAzVgKkLP8NsO-1" target="w4hCBARyAzVgKkLP8NsO-2">
          <mxGeometry relative="1" as="geometry" />
        </mxCell>
        <mxCell id="w4hCBARyAzVgKkLP8NsO-1" value="Start" style="ellipse;whiteSpace=wrap;html=1;" vertex="1" parent="1">
          <mxGeometry x="354" y="30" width="120" height="80" as="geometry" />
        </mxCell>
        <mxCell id="w4hCBARyAzVgKkLP8NsO-5" value="" style="edgeStyle=orthogonalEdgeStyle;rounded=0;orthogonalLoop=1;jettySize=auto;html=1;" edge="1" parent="1" source="w4hCBARyAzVgKkLP8NsO-2" target="w4hCBARyAzVgKkLP8NsO-4">
          <mxGeometry relative="1" as="geometry" />
        </mxCell>
        <mxCell id="w4hCBARyAzVgKkLP8NsO-2" value="e_vlr_A, e_vlr_B, Trade" style="shape=internalStorage;whiteSpace=wrap;html=1;dx=15;dy=15;rounded=1;arcSize=8;strokeWidth=2;" vertex="1" parent="1">
          <mxGeometry x="324.5" y="160" width="179" height="80" as="geometry" />
        </mxCell>
        <mxCell id="w4hCBARyAzVgKkLP8NsO-9" value="" style="edgeStyle=orthogonalEdgeStyle;rounded=0;orthogonalLoop=1;jettySize=auto;html=1;" edge="1" parent="1" source="w4hCBARyAzVgKkLP8NsO-4" target="w4hCBARyAzVgKkLP8NsO-8">
          <mxGeometry relative="1" as="geometry" />
        </mxCell>
        <mxCell id="w4hCBARyAzVgKkLP8NsO-4" value="e_vlr_A, e_vlr_B" style="html=1;strokeWidth=2;shape=manualInput;whiteSpace=wrap;rounded=1;size=26;arcSize=11;" vertex="1" parent="1">
          <mxGeometry x="321" y="280" width="186" height="100" as="geometry" />
        </mxCell>
        <mxCell id="w4hCBARyAzVgKkLP8NsO-11" value="" style="edgeStyle=orthogonalEdgeStyle;rounded=0;orthogonalLoop=1;jettySize=auto;html=1;" edge="1" parent="1" source="w4hCBARyAzVgKkLP8NsO-8" target="w4hCBARyAzVgKkLP8NsO-10">
          <mxGeometry relative="1" as="geometry" />
        </mxCell>
        <mxCell id="w4hCBARyAzVgKkLP8NsO-8" value="&lt;span&gt;trade = e_vlr_A&lt;/span&gt;&lt;br&gt;&lt;span&gt;e_vlr_A = e_vlr_B&lt;/span&gt;&lt;br&gt;&lt;span&gt;e_vlr_B = trade&lt;/span&gt;" style="rounded=1;whiteSpace=wrap;html=1;" vertex="1" parent="1">
          <mxGeometry x="319" y="440" width="190" height="100" as="geometry" />
        </mxCell>
        <mxCell id="w4hCBARyAzVgKkLP8NsO-13" value="" style="edgeStyle=orthogonalEdgeStyle;rounded=0;orthogonalLoop=1;jettySize=auto;html=1;" edge="1" parent="1" source="w4hCBARyAzVgKkLP8NsO-10" target="w4hCBARyAzVgKkLP8NsO-12">
          <mxGeometry relative="1" as="geometry" />
        </mxCell>
        <mxCell id="w4hCBARyAzVgKkLP8NsO-10" value="e_vlr_A, e_vlr_B" style="strokeWidth=2;html=1;shape=mxgraph.flowchart.document2;whiteSpace=wrap;size=0.25;" vertex="1" parent="1">
          <mxGeometry x="326.5" y="610" width="175" height="100" as="geometry" />
        </mxCell>
        <mxCell id="w4hCBARyAzVgKkLP8NsO-12" value="End" style="ellipse;whiteSpace=wrap;html=1;" vertex="1" parent="1">
          <mxGeometry x="354" y="770" width="120" height="80" as="geometry" />
        </mxCell>
      </root>
    </mxGraphModel>
  </diagram>
</mxfile>
